<svg width="38" height="38" viewBox="0 0 32 32" fill="none" xmlns="http://www.w3.org/2000/svg">
  <rect x="-0.000610352" width="32" height="32" rx="12" fill="#FF7551"/>
  <path d="M16 8C11.5899 8 8 11.5899 8 16C8 20.4101 11.5899 24 16 24C20.4101 24 24 20.4101 24 16C24 11.5899 20.4101 8 16 8ZM16 22C12.6863 22 10 19.3137 10 16C10 12.6863 12.6863 10 16 10C19.3137 10 22 12.6863 22 16C22 19.3137 19.3137 22 16 22ZM16.5 16V12.5C16.5 12.2239 16.2761 12 16 12C15.7239 12 15.5 12.2239 15.5 12.5V16.5C15.5 16.7761 15.7239 17 16 17H18.5C18.7761 17 19 16.7761 19 16.5C19 16.2239 18.7761 16 18.5 16H16.5Z" fill="white"/>
</svg>