<svg width="38" height="38" viewBox="0 0 32 32" fill="none" xmlns="http://www.w3.org/2000/svg">
  <rect opacity="0.1" x="-0.000610352" width="32" height="32" rx="12" fill="#ffffff30"/>
  <path d="M21 12H18.57L19.43 9.29C19.91 7.88 19.64 6.59 18.66 5.92C18.06 5.5 17.25 5.42 16.53 5.7L12.57 7.16C12.15 7.31 11.82 7.63 11.65 8.05L10.2 11.42C10.07 11.74 10 12.1 10 12.47V19.5C10 20.33 10.67 21 11.5 21H18.8C19.39 21 19.94 20.72 20.26 20.22L22.69 16.38C22.87 16.1 23 15.76 23 15.41V14C23 13.17 22.33 12.5 21.5 12.5H21V12ZM8 12.5H6.5C5.67 12.5 5 13.17 5 14V20C5 20.83 5.67 21.5 6.5 21.5H8V12.5Z" fill="#808191"/>
</svg>
